<?xml version="1.0" encoding="UTF-8"?>
<svg xmlns="http://www.w3.org/2000/svg" viewBox="0 0 841.89 315.4">
  <!-- tovia — currentColor -->
  <path fill="currentColor" d="M136.9,123.86h-15.52c-3.94,0-7.14,3.2-7.14,7.14v7.85h-8v16.46h8v28.4c0,6.28,1.79,11.03,5.38,14.26,3.59,3.23,8.91,4.85,15.98,4.85,2.03,0,4.19-.12,6.48-.37,2.29-.24,4.73-.72,7.33-1.44l-2.71-16.18c-.41.15-1.27.31-2.56.48s-2.28.25-2.96.25c-1.5,0-2.59-.33-3.27-.99-.68-.66-1.01-1.64-1.01-2.96v-26.32h12.51v-16.46h-12.51v-14.99Z"/>
  <path fill="currentColor" d="M201.16,142.88c-4.85-2.68-10.69-4.03-17.53-4.03s-12.7,1.34-17.58,4.03c-4.88,2.68-8.61,6.42-11.19,11.22-2.57,4.79-3.86,10.37-3.86,16.74s1.29,11.95,3.86,16.74c2.57,4.79,6.3,8.53,11.19,11.22,4.88,2.68,10.75,4.03,17.58,4.03s12.68-1.34,17.53-4.03c4.85-2.68,8.56-6.42,11.13-11.22,2.57-4.79,3.86-10.37,3.86-16.74s-1.29-11.95-3.86-16.74c-2.57-4.79-6.28-8.53-11.13-11.22ZM191.92,179.03c-.75,2.31-1.83,4.08-3.24,5.3-1.41,1.22-3.09,1.83-5.04,1.83s-3.7-.61-5.13-1.83c-1.43-1.22-2.52-2.99-3.27-5.3-.75-2.31-1.13-5.08-1.13-8.3s.38-6.02,1.13-8.27c.75-2.26,1.84-3.98,3.27-5.16,1.43-1.18,3.14-1.78,5.13-1.78s3.64.59,5.04,1.78c1.41,1.19,2.49,2.91,3.24,5.16.75,2.26,1.13,5.02,1.13,8.27s-.38,5.99-1.13,8.3Z"/>
  <path fill="currentColor" d="M253.92,168.03c-1.17,4.35-2.2,8.77-3.1,13.27,0,.02,0,.03,0,.05-.21,1.06-1.7,1.06-1.92,0,0-.03-.01-.05-.02-.08-.92-4.52-1.98-8.93-3.18-13.25l-8.17-29.18h-23.78l20.73,59.11c1.02,2.91,3.73,4.85,6.78,4.85h16.53c3,0,5.67-1.91,6.68-4.78l20.86-59.19h-23.45l-7.95,29.18Z"/>
  <path fill="currentColor" d="M299.46,132.26c3.08,0,5.71-1.01,7.89-3.04,2.18-2.03,3.27-4.47,3.27-7.33s-1.09-5.34-3.27-7.35c-2.18-2.01-4.81-3.02-7.89-3.02s-5.71,1.01-7.89,3.02c-2.18,2.01-3.27,4.46-3.27,7.35s1.09,5.3,3.27,7.33c2.18,2.03,4.81,3.04,7.89,3.04Z"/>
  <path fill="currentColor" d="M303.57,138.8h-8.24c-3.98,0-7.2,3.23-7.2,7.2v56.82h22.66v-56.81c0-3.98-3.23-7.21-7.21-7.21Z"/>
  <path fill="currentColor" d="M373.37,151.23c-1.37-2.47-3.34-4.63-5.92-6.48-2.57-1.85-5.67-3.3-9.3-4.34-3.63-1.04-7.67-1.56-12.15-1.56-5.9,0-10.91.85-15.02,2.56-4.11,1.71-7.34,3.99-9.67,6.84-1.77,2.17-3.04,4.52-3.81,7.06l20.81,2.04c.17-.25.35-.48.55-.69.77-.82,1.74-1.43,2.9-1.84,1.16-.41,2.46-.61,3.89-.61s2.72.19,3.78.58c1.05.39,1.87.96,2.45,1.7.58.74.87,1.65.87,2.73v.22c0,1.19-.48,2.14-1.44,2.86-.96.72-2.5,1.27-4.62,1.64-2.12.37-4.95.69-8.48.95-3.27.22-6.3.75-9.1,1.59-2.8.83-5.25,2.02-7.35,3.56-2.1,1.54-3.74,3.51-4.9,5.92-1.16,2.41-1.75,5.32-1.75,8.73,0,4.12.86,7.51,2.59,10.18,1.73,2.67,4.14,4.66,7.24,5.98,3.1,1.32,6.66,1.97,10.68,1.97,2.74,0,5.24-.33,7.5-1,2.25-.67,4.27-1.71,6.06-3.14,1.78-1.43,3.32-3.31,4.59-5.65h.45v9.79h14.08c3.93,0,7.11-4.14,7.11-8.02v-35.59c0-2.86-.69-5.52-2.06-7.98ZM352.99,179.79c0,1.89-.48,3.5-1.44,4.81-.96,1.32-2.2,2.33-3.72,3.03-1.52.7-3.15,1.06-4.88,1.06-1.28,0-2.4-.2-3.38-.61-.98-.41-1.75-1.01-2.31-1.81-.56-.8-.85-1.77-.85-2.92,0-1.08.26-2.05.79-2.92.53-.87,1.34-1.61,2.45-2.22,1.11-.61,2.55-1.05,4.31-1.31.9-.15,1.76-.3,2.56-.44.81-.15,1.6-.31,2.37-.5.77-.19,1.49-.39,2.17-.61.68-.22,1.31-.45,1.92-.67v5.12Z"/>
  <!-- mobile — laranja primário -->
  <path fill="#FF6B1A" d="M464.85,146.36c-2.86-1.66-6.19-2.49-9.97-2.49-2.93,0-5.79.59-8.56,1.78-2.78,1.18-5.22,3.13-7.34,5.83-1.42,1.81-2.59,4.05-3.52,6.68-1.43-4.61-3.16-8-5.17-10.15-2.58-2.76-5.97-4.14-10.18-4.14-2.72,0-5.31.56-7.77,1.67-2.46,1.11-4.6,2.9-6.44,5.35-1.2,1.61-2.21,3.56-3.04,5.84l-1.04-12.13h-19.46v59.27h21.31v-34.56c0-1.73.28-3.21.85-4.43.57-1.22,1.38-2.16,2.44-2.84,1.06-.67,2.33-1.01,3.82-1.01,2.19,0,3.94.73,5.25,2.2,1.31,1.47,1.96,3.49,1.96,6.07v34.56h20.36v-34.56c0-1.73.28-3.21.85-4.43.56-1.22,1.39-2.16,2.46-2.84,1.08-.67,2.34-1.01,3.79-1.01,2.19,0,3.94.73,5.25,2.2,1.31,1.47,1.96,3.49,1.96,6.07v34.56h21.31v-39.97c0-4.06-.8-7.59-2.41-10.58-1.61-2.99-3.84-5.31-6.71-6.97Z"/>
  <path fill="#FF6B1A" d="M528.11,146.65c-4.56-2.56-10.06-3.84-16.49-3.84s-11.95,1.28-16.54,3.84c-4.59,2.56-8.1,6.13-10.52,10.71-2.42,4.58-3.63,9.91-3.63,15.98s1.21,11.41,3.63,15.98c2.42,4.58,5.93,8.15,10.52,10.71,4.59,2.56,10.11,3.84,16.54,3.84s11.93-1.28,16.49-3.84c4.56-2.56,8.05-6.13,10.47-10.71,2.42-4.58,3.63-9.9,3.63-15.98s-1.21-11.41-3.63-15.98c-2.42-4.58-5.91-8.15-10.47-10.71ZM519.41,181.16c-.71,2.21-1.72,3.9-3.05,5.06-1.33,1.17-2.91,1.75-4.74,1.75s-3.48-.58-4.82-1.75c-1.34-1.17-2.37-2.85-3.07-5.06-.71-2.21-1.06-4.85-1.06-7.93s.35-5.74,1.06-7.9c.71-2.15,1.73-3.8,3.07-4.93,1.34-1.13,2.95-1.7,4.82-1.7s3.42.57,4.74,1.7c1.33,1.13,2.34,2.78,3.05,4.93.71,2.16,1.06,4.79,1.06,7.9s-.35,5.72-1.06,7.93Z"/>
  <path fill="#FF6B1A" d="M598.6,146.26c-3.52-2.09-7.24-3.13-11.16-3.13-2.93,0-5.5.5-7.71,1.51-2.21,1.01-4.06,2.36-5.54,4.06-1.48,1.7-2.62,3.55-3.39,5.57h-.32v-30.11h-21.31v78.99h21.1v-9.75h.53c.81,2.01,1.98,3.81,3.5,5.38,1.52,1.57,3.37,2.82,5.54,3.74,2.17.92,4.64,1.38,7.4,1.38,4.24,0,8.13-1.1,11.66-3.31,3.53-2.21,6.36-5.56,8.48-10.05,2.12-4.49,3.18-10.14,3.18-16.96,0-7.17-1.11-13-3.34-17.47-2.23-4.47-5.1-7.75-8.62-9.83ZM587.52,181.06c-.72,2.1-1.77,3.71-3.13,4.82-1.36,1.11-3.03,1.67-5.01,1.67s-3.62-.57-5.04-1.72c-1.41-1.15-2.5-2.76-3.26-4.85-.76-2.09-1.14-4.56-1.14-7.42s.38-5.45,1.14-7.55c.76-2.1,1.85-3.72,3.26-4.85s3.09-1.7,5.04-1.7,3.65.57,5.01,1.7,2.4,2.75,3.13,4.85c.72,2.1,1.09,4.62,1.09,7.55s-.36,5.4-1.09,7.5Z"/>
  <rect fill="#FF6B1A" x="617.51" y="144.61" width="21.31" height="59.27"/>
  <path fill="#FF6B1A" d="M628.11,138.57c2.9,0,5.37-.95,7.42-2.86,2.05-1.91,3.07-4.21,3.07-6.89s-1.03-5.03-3.07-6.92c-2.05-1.89-4.52-2.84-7.42-2.84s-5.37.95-7.42,2.84c-2.05,1.89-3.07,4.2-3.07,6.92s1.02,4.98,3.07,6.89c2.05,1.91,4.52,2.86,7.42,2.86Z"/>
  <rect fill="#FF6B1A" x="647.9" y="124.89" width="21.31" height="78.99"/>
  <path fill="#FF6B1A" d="M735.65,178.12v-4.88c0-4.74-.69-8.98-2.07-12.72-1.38-3.75-3.36-6.94-5.94-9.57-2.58-2.63-5.68-4.65-9.3-6.04-3.62-1.4-7.68-2.09-12.17-2.09-6.11,0-11.42,1.27-15.9,3.82s-7.96,6.11-10.42,10.68c-2.46,4.58-3.68,9.92-3.68,16.04s1.22,11.88,3.66,16.43c2.44,4.56,5.95,8.05,10.52,10.47,4.58,2.42,10.03,3.63,16.35,3.63,5.05,0,9.5-.71,13.33-2.12,3.83-1.41,7.01-3.42,9.52-6.02s4.26-5.66,5.25-9.2l-18.77-2.76c-.42,1.1-1.06,2.02-1.91,2.78-.85.76-1.87,1.34-3.05,1.75-1.18.41-2.5.61-3.95.61-2.01,0-3.78-.42-5.3-1.25-1.52-.83-2.7-2.1-3.53-3.82-.75-1.54-1.14-3.47-1.21-5.75h38.56ZM697.21,166.45c.04-.83.22-2.16.91-3.63.36-.78,1.2-2.52,3.13-3.76,2-1.3,4.01-1.3,5.14-1.3s3.14,0,5.14,1.3c1.83,1.19,2.66,2.83,3.13,3.76.72,1.45.97,2.78,1.06,3.63h-18.51Z"/>
</svg>
